<svg width="1597" height="700" xmlns="http://www.w3.org/2000/svg">
 <!-- Created with Method Draw - http://github.com/duopixel/Method-Draw/ -->
 <g>
  <title>background</title>
  <rect fill="none" id="canvas_background" height="702" width="1599" y="-1" x="-1"/>
  <g display="none" overflow="visible" y="0" x="0" height="100%" width="100%" id="canvasGrid">
   <rect fill="url(#gridpattern)" stroke-width="0" y="0" x="0" height="100%" width="100%"/>
  </g>
 </g>
 <g>
  <title>Layer 1</title>
  <rect id="svg_189" height="268.004557" width="384.006529" y="461.001887" x="-34.514194" fill-opacity="0" stroke-width="1.5" stroke="#007f00" fill="none"/>
  <rect id="svg_190" height="418.007107" width="586.009964" y="144.996514" x="-72.51484" fill-opacity="0" stroke-width="1.5" stroke="#007f00" fill="none"/>
  <rect id="svg_191" height="434.007379" width="616.010474" y="-69.007124" x="227.490261" fill-opacity="0" stroke-width="1.5" stroke="#007f00" fill="none"/>
  <rect id="svg_192" height="352.005985" width="306.005203" y="180.997127" x="625.497028" fill-opacity="0" stroke-width="1.5" stroke="#007f00" fill="none"/>
  <rect id="svg_193" height="398.006767" width="520.008842" y="8.994202" x="873.501245" fill-opacity="0" stroke-width="1.5" stroke="#007f00" fill="none"/>
  <rect id="svg_194" height="368.006257" width="260.004421" y="208.997603" x="1205.50689" fill-opacity="0" stroke-width="1.5" stroke="#007f00" fill="none"/>
  <rect id="svg_195" height="390.006631" width="590.010032" y="34.994644" x="1181.506482" fill-opacity="0" stroke-width="1.5" stroke="#007f00" fill="none"/>
  <rect id="svg_196" height="242.004115" width="518.008808" y="579.003894" x="823.500395" fill-opacity="0" stroke-width="1.5" stroke="#007f00" fill="none"/>
  <rect id="svg_197" height="286.004863" width="448.007617" y="479.002193" x="331.492029" fill-opacity="0" stroke-width="1.5" stroke="#007f00" fill="none"/>
  <rect id="svg_198" height="210.003571" width="300.005101" y="220.997807" x="59.487404" fill-opacity="0" stroke-width="1.5" stroke="#007f00" fill="none"/>
  <rect id="svg_199" height="170.00289" width="312.005305" y="84.995494" x="171.489309" fill-opacity="0" stroke-width="1.5" stroke="#007f00" fill="none"/>
  <rect id="svg_200" height="210.003571" width="416.007073" y="-85.007396" x="431.493729" fill-opacity="0" stroke-width="1.5" stroke="#007f00" fill="none"/>
  <rect id="svg_201" height="350.005951" width="214.003639" y="152.99665" x="1023.503795" fill-opacity="0" stroke-width="1.5" stroke="#007f00" fill="none"/>
  <rect id="svg_202" height="172.002925" width="328.005577" y="529.003044" x="1351.509372" fill-opacity="0" stroke-width="1.5" stroke="#7f00ff" fill="none"/>
  <rect id="svg_203" height="142.002414" width="422.007175" y="256.998419" x="315.491757" fill-opacity="0" stroke-width="1.5" stroke="#7f00ff" fill="none"/>
  <rect id="svg_204" height="116.001972" width="334.005679" y="545.003316" x="469.494376" fill-opacity="0" stroke-width="1.5" stroke="#7f00ff" fill="none"/>
  <rect id="svg_205" height="104.001768" width="44.000748" y="613.004472" x="599.496586" fill-opacity="0" stroke-width="1.5" stroke="#7f00ff" fill="none"/>
  <rect id="svg_206" height="100.0017" width="8.000136" y="633.004812" x="173.489343" fill-opacity="0" stroke-width="1.5" stroke="#7f00ff" fill="none"/>
  <rect id="svg_207" height="208.003537" width="206.003503" y="399.000833" x="-134.515894" fill-opacity="0" stroke-width="1.5" stroke="#7f00ff" fill="none"/>
  <rect id="svg_208" height="148.002516" width="224.003809" y="-59.006954" x="-126.515758" fill-opacity="0" stroke-width="1.5" stroke="#7f00ff" fill="none"/>
  <rect id="svg_209" height="348.005917" width="26.000442" y="-83.007362" x="713.498524" fill-opacity="0" stroke-width="1.5" stroke="#7f00ff" fill="none"/>
  <rect id="svg_210" height="376.006393" width="368.006257" y="-49.006784" x="955.502639" fill-opacity="0" stroke-width="1.5" stroke="#7f00ff" fill="none"/>
  <rect id="svg_211" height="148.002516" width="320.005441" y="252.998351" x="1503.511957" fill-opacity="0" stroke-width="1.5" stroke="#7f00ff" fill="none"/>
  <rect id="svg_212" height="180.003061" width="418.007107" y="503.002601" x="1079.504747" fill-opacity="0" stroke-width="1.5" stroke="#7f00ff" fill="none"/>
  <rect id="svg_213" height="656.011154" width="328.005577" y="70.995256" x="413.493423" fill-opacity="0" stroke-width="1.5" stroke="#7f007f" fill="none"/>
  <rect id="svg_214" height="270.004591" width="214.003639" y="479.002193" x="865.501109" fill-opacity="0" stroke-width="1.5" stroke="#7f007f" fill="none"/>
  <rect id="svg_215" height="268.004557" width="48.000816" y="463.001921" x="131.488629" fill-opacity="0" stroke-width="1.5" stroke="#7f007f" fill="none"/>
  <rect id="svg_216" height="248.004217" width="540.009182" y="158.996752" x="-234.517595" fill-opacity="0" stroke-width="1.5" stroke="#7f007f" fill="none"/>
  <rect id="svg_217" height="170.00289" width="214.003639" y="-41.006648" x="1497.511855" fill-opacity="0" stroke-width="1.5" stroke="#7f007f" fill="none"/>
  <rect id="svg_218" height="402.006835" width="520.008842" y="-83.007362" x="551.49577" fill-opacity="0" stroke-width="1.5" stroke="#7f007f" fill="none"/>
  <rect id="svg_219" height="4.000068" width="0" y="863.008723" x="681.49798" fill-opacity="0" stroke-width="1.5" stroke="#7f007f" fill="none"/>
 </g>
</svg>